<svg xmlns="http://www.w3.org/2000/svg" xmlns:xlink="http://www.w3.org/1999/xlink" xml:space="preserve" version="1.1" style="shape-rendering:geometricPrecision;text-rendering:geometricPrecision;image-rendering:optimizeQuality;" viewBox="0 0 60000 75000" x="0px" y="0px" fill-rule="evenodd" clip-rule="evenodd"><defs><style type="text/css">
   
    .fil0 {fill:black;fill-rule:nonzero}
   
  </style></defs><g><path class="fil0" d="M763.53 29556.04c-220.05,0 -398.44,-178.39 -398.44,-398.44 0,-220.05 178.39,-398.44 398.44,-398.44l14719.83 11.56c750.58,0.59 1208.75,388.98 1601.18,721.65 253.59,214.97 458.01,388.26 671.51,209.5 122.09,-102.22 262.06,-269.9 400.01,-435.17 297.85,-356.81 588.66,-705.2 970.25,-740.38 527.17,-48.6 921.82,447.8 1285.85,905.72 76.19,95.85 150.94,189.87 185.6,231.02 121.58,144.33 50.15,263.06 89.2,230.16 26.2,-22.07 75.5,-84.03 131.07,-153.88 194.79,-244.84 442.98,-556.74 942.99,-716 412.23,-131.28 973.69,-11.98 1588.13,275.29 221.76,103.67 453.79,229.99 690.26,374.33 553.97,-546.16 1078.26,-1097.15 1470.64,-1693.92 38.81,-59.03 72.19,-108.31 104.83,-155.75 -461.41,-595.43 -807.57,-1242.53 -929.98,-1968.49 -111.04,-658.51 128.41,-1108.94 497.7,-1352.19 204.22,-134.53 447.46,-201.59 692.02,-202.29 241.92,-0.69 486.85,63.73 697.5,192.11 399.56,243.5 676.26,706.81 580.78,1378.29 -96.11,675.94 -557.39,1407.44 -913.29,1927.7 517.5,602.57 1154.21,1160.3 1767.2,1697.17 55.07,48.23 109.95,96.3 164.56,144.24 560.65,-549.95 1094.84,-1102.1 1493.09,-1694.16 -368.46,-534.36 -876.08,-1317.03 -980.86,-2053.86 -9.46,-66.53 -14.4,-136.88 -15.09,-210.33 -3.79,-396.12 141.64,-751.62 375.13,-1020.3 235.65,-271.18 561.5,-455.22 915.63,-505.58 56.76,-8.07 118.74,-12.54 185.78,-13.18l6.26 0c67.04,0.64 129.02,5.11 185.78,13.18 354.14,50.34 679.98,234.41 915.63,505.58 233.5,268.7 378.9,624.16 375.13,1020.3 -0.69,73.46 -5.64,143.79 -15.09,210.33 -104.78,736.83 -612.4,1519.5 -980.86,2053.86 400.03,594.7 937.2,1149.12 1500.58,1701.51 57.37,-50.37 115.05,-100.89 172.94,-151.59 612.99,-536.87 1249.7,-1094.6 1767.2,-1697.17 -355.9,-520.26 -817.18,-1251.76 -913.29,-1927.7 -95.48,-671.49 181.21,-1134.78 580.78,-1378.3 210.65,-128.38 455.57,-192.79 697.5,-192.1 244.56,0.7 487.8,67.76 692.02,202.29 369.29,243.26 608.73,693.71 497.7,1352.19 -122.41,725.96 -468.57,1373.06 -929.98,1968.49 32.64,47.44 66.02,96.72 104.83,155.75 390.94,594.59 912.84,1143.73 1464.57,1687.93 233.09,-141.85 461.77,-266.1 680.46,-368.34 614.44,-287.27 1175.9,-406.57 1588.13,-275.29 500.01,159.24 748.2,471.16 942.99,716 55.58,69.85 104.9,131.83 131.07,153.88 39.05,32.9 -32.38,-85.83 89.2,-230.16 34.66,-41.15 109.41,-135.17 185.6,-231.02 364.03,-457.92 758.68,-954.32 1285.85,-905.72 381.58,35.18 672.41,383.58 970.26,740.4 137.95,165.26 277.92,332.93 400,435.15 215.31,180.27 427.15,1.71 688.52,-218.61 398.74,-336.1 862.67,-727.17 1610.61,-727.76l14397.03 -11.31c220.05,0 398.44,178.39 398.44,398.44 0,220.05 -178.39,398.44 -398.44,398.44l-14397.03 11.31c-457.6,0.36 -802.07,290.72 -1098.11,540.26 -544.51,459 -985.82,831.01 -1713.52,221.73 -176.96,-148.17 -339.65,-343.06 -500,-535.15 -191.96,-229.97 -379.41,-454.51 -429.64,-459.14 -97.79,-9.01 -353.3,312.38 -588.97,608.84 -55.41,69.7 -109.92,138.26 -201.22,246.64 -536.55,636.9 -862.02,621.11 -1211.08,327.04 -95.92,-80.81 -165.32,-168.04 -243.57,-266.38 -129.15,-162.32 -293.7,-369.13 -558.61,-453.5 -206.83,-65.87 -569.91,32.03 -1010.01,237.79 -137.91,64.47 -280.83,139.18 -426.99,222.69 871.77,849.22 1732.38,1723.08 2248.64,2807.05l-0.42 0.2c74.45,151.47 136.75,302.01 188.56,446.37 61.8,172.21 106.62,328.92 138.4,465.03 164.72,705.39 -31.92,1204.97 -372.26,1486.28 -188.61,155.9 -420.26,241.9 -659.89,257.26 -234.29,15.03 -477.35,-38.61 -694.92,-161.58 -426.39,-241 -751.82,-743.42 -704.25,-1506.83 8.09,-137.52 126.15,-242.46 263.67,-234.37 137.52,8.09 242.46,126.15 234.37,263.67 -33.86,543.5 175.01,888.31 450.35,1043.93 130.91,73.99 277.68,106.24 419.52,97.14 136.49,-8.75 267.43,-56.89 372.79,-143.98 205.84,-170.14 318.81,-497.85 204.3,-988.24 -29.47,-126.25 -68.97,-265.82 -120.84,-410.35 -44.71,-124.56 -100.18,-257.85 -168.6,-396.76l-1.96 -2.93c-497.38,-1044.32 -1365.91,-1907.11 -2235.14,-2752.05 -300.48,198.18 -606.94,425.91 -905.36,672.14 -378.4,312.22 -741.84,652.87 -1061.74,999.32 172.21,254.96 327.78,520.99 461.28,801.29l-0.67 0.32c76.05,154.94 140.24,310.31 194.08,460.31 64.8,180.58 111.22,342.41 143.68,481.44 179.78,769.88 -41.96,1321.04 -422.65,1635.7 -213.59,176.55 -475.45,273.9 -746.03,291.25 -262.02,16.81 -533.96,-43.25 -777.53,-180.92 -471.71,-266.62 -832.11,-816.31 -780.43,-1645.7 31.27,-500.85 312.17,-1080.24 741.31,-1662.78 53.12,-72.1 108.66,-144.5 166.37,-217 -456.29,-568.65 -998.7,-1095.56 -1536.35,-1617.77l-1.98 -1.92c-247.82,228.02 -479.37,453.35 -682.23,677.26 -262.36,289.61 -516.1,591.57 -747.15,896.61 124.03,175.98 239.71,352.25 344.62,527.24 312.14,520.64 531.49,1033.76 598.04,1501.77l1.95 20.51c45.14,724.55 -254.13,1205.62 -658.56,1437.58 -184.18,105.64 -389.49,158.47 -594.58,158.47 -205.09,0 -410.4,-52.82 -594.58,-158.46 -404.44,-231.98 -703.69,-713.05 -658.55,-1437.59l1.95 -20.51c66.55,-468.01 285.9,-981.13 598.04,-1501.77 104.91,-174.99 220.59,-351.26 344.62,-527.24 -231.05,-305.04 -484.79,-607 -747.15,-896.61 -205.08,-226.37 -439.49,-454.18 -690.38,-684.76l-9.7 9.42c-537.65,522.21 -1080.06,1049.12 -1536.35,1617.77 57.71,72.5 113.25,144.9 166.37,217 429.14,582.54 710.04,1161.93 741.31,1662.78 51.68,829.39 -308.73,1379.08 -780.43,1645.7 -243.57,137.67 -515.51,197.72 -777.53,180.92 -270.59,-17.35 -532.44,-114.72 -746.04,-291.25 -380.69,-314.66 -602.42,-865.81 -422.64,-1635.7 32.46,-139.03 78.88,-300.86 143.68,-481.44 53.84,-150 118.03,-305.37 194.08,-460.31l-0.67 -0.32c133.5,-280.3 289.07,-546.33 461.28,-801.29 -319.9,-346.45 -683.34,-687.1 -1061.74,-999.32 -295.3,-243.65 -598.46,-469.2 -895.91,-665.9 -867.09,842.95 -1732.56,1704.06 -2228.72,2745.81l-1.96 2.93c-68.42,138.91 -123.89,272.2 -168.6,396.76 -51.87,144.53 -91.37,284.1 -120.84,410.35 -114.51,490.39 -1.55,818.1 204.29,988.24 105.36,87.07 236.3,135.23 372.8,143.98 141.85,9.09 288.61,-23.15 419.52,-97.14 275.33,-155.62 484.21,-500.43 450.35,-1043.93 -8.09,-137.52 96.85,-255.58 234.37,-263.67 137.52,-8.09 255.58,96.85 263.67,234.37 47.57,763.41 -277.87,1265.83 -704.25,1506.83 -217.57,122.97 -460.63,176.6 -694.92,161.58 -239.64,-15.36 -471.29,-101.38 -659.9,-257.26 -340.34,-281.31 -536.97,-780.89 -372.25,-1486.28 31.78,-136.11 76.6,-292.82 138.4,-465.03 51.81,-144.36 114.11,-294.9 188.56,-446.37l-0.42 -0.2c515.1,-1081.53 1373,-1953.9 2242.76,-2801.32 -149.64,-85.83 -295.94,-162.48 -436.98,-228.42 -440.1,-205.76 -803.18,-303.66 -1010.01,-237.79 -264.91,84.37 -429.46,291.18 -558.61,453.5 -78.24,98.34 -147.66,185.58 -243.57,266.38 -349.06,294.07 -674.53,309.86 -1211.08,-327.04 -91.3,-108.38 -145.81,-176.94 -201.22,-246.64 -235.67,-296.46 -491.18,-617.85 -588.97,-608.84 -50.23,4.63 -237.67,229.17 -429.63,459.12 -160.34,192.1 -323.03,386.99 -500.01,535.17 -728.89,610.28 -1162.15,243.01 -1699.63,-212.62 -290.51,-246.27 -629.69,-533.79 -1085.56,-534.15l-14719.83 -11.56zm23704.21 394.6c275.05,188.49 551.38,397.12 820.2,618.92 367.3,303.05 722.23,631.78 1042.47,968.53 453.33,-547.21 969.54,-1050.75 1482.96,-1549.48l-134.68 -118.02c-594.99,-521.11 -1211.27,-1060.88 -1732.23,-1648.49l-20.39 30.38c-401,609.88 -914.99,1159.07 -1458.33,1698.16zm8022.77 45.28c510.94,496.34 1024.33,997.63 1475.44,1542.17 320.24,-336.75 675.17,-665.48 1042.47,-968.53 271.88,-224.32 551.44,-435.17 829.59,-625.35 -540.95,-537.02 -1052.45,-1084.27 -1451.85,-1691.73l-20.39 -30.38c-520.96,587.61 -1137.24,1127.38 -1732.23,1648.49 -47.84,41.9 -95.55,83.67 -143.03,125.33zm-953.68 184.5c-502.01,-493.3 -985.39,-992.49 -1388.65,-1538.92 -401.2,543.64 -881.7,1040.52 -1380.96,1531.36 252.06,232.45 489.64,464.34 702.36,699.14 238.69,263.48 470.75,537.14 686.53,814.64 215.78,-277.5 447.85,-551.16 686.54,-814.64 210.42,-232.26 445.17,-461.66 694.18,-691.58zm-5623.45 -2791.27c312.8,-467.55 671.53,-1069.3 745.38,-1588.75 62.55,-439.91 -103.69,-734.27 -346.4,-882.19 -131.42,-80.09 -285.18,-120.29 -437.74,-119.85 -149.94,0.43 -297.19,40.3 -418.58,120.27 -215.24,141.78 -351.63,423.19 -278.96,854.13 97.75,579.69 368.13,1114.29 736.3,1616.39zm4468.14 5496.54c-70.23,-117.14 -145.65,-234.99 -225.41,-353.04 -79.76,118.05 -155.17,235.9 -225.4,353.04 -277.61,463.04 -472.08,911.02 -530.35,1307.46 -27.93,499.35 157.49,818.57 409.21,962.95 106.99,61.37 226.68,92.06 346.54,92.06 119.86,0 239.54,-30.7 346.54,-92.07 251.72,-144.37 437.15,-463.59 409.22,-962.94 -58.27,-396.44 -252.74,-844.42 -530.35,-1307.46zm4017.33 -5496.54c368.17,-502.1 638.55,-1036.7 736.3,-1616.39 72.66,-430.93 -63.73,-712.35 -278.96,-854.13 -121.39,-79.97 -268.64,-119.84 -418.58,-120.27 -152.57,-0.44 -306.33,39.75 -437.74,119.84 -242.72,147.93 -408.95,442.29 -346.4,882.2 73.85,519.45 432.58,1121.2 745.38,1588.75zm-8012.23 5448.14l-7.17 -9.68c-101.15,163.03 -193.58,330.09 -275.43,501.94l-3.13 4.68c-66.42,134.85 -119.7,262.65 -162.16,380.95 -48.86,136.16 -86.76,270.59 -115.56,393.94 -99.45,425.9 -11.59,702.03 153.9,838.82 80.38,66.43 181.1,103.23 286.66,109.99 114.13,7.31 232,-18.51 336.91,-77.8 230,-130.01 403.92,-427.52 374.17,-905.06 -20.92,-335.18 -244.27,-770.92 -588.19,-1237.78zm3761.56 -5603.37c292.24,-443.61 608,-990.7 673.96,-1454.61 5.66,-39.84 8.55,-74.5 8.83,-104.09 1.82,-190.75 -68.49,-362.26 -181.37,-492.16 -110.74,-127.43 -262.03,-213.67 -425.01,-236.84 -29.25,-4.16 -54.83,-6.49 -76.41,-6.88 -21.58,0.39 -47.16,2.72 -76.41,6.88 -162.98,23.17 -314.27,109.41 -425.01,236.84 -112.88,129.9 -183.19,301.42 -181.37,492.16 0.28,29.6 3.16,64.25 8.83,104.09 65.96,463.91 381.72,1011 673.96,1454.61zm4044.16 6095.63c-81.85,-171.85 -174.28,-338.91 -275.43,-501.94l-7.17 9.68c-343.92,466.86 -567.27,902.6 -588.19,1237.78 -29.75,477.54 144.16,775.05 374.17,905.06 104.91,59.29 222.78,85.12 336.91,77.8 105.56,-6.76 206.27,-43.55 286.65,-109.99 165.49,-136.79 253.36,-412.93 153.91,-838.82 -28.8,-123.35 -66.7,-257.78 -115.56,-393.94 -42.46,-118.3 -95.74,-246.1 -162.16,-380.95l-3.13 -4.68z"/></g><text x="0" y="60015" fill="#000000" font-size="5px" font-weight="bold" font-family="'Helvetica Neue', Helvetica, Arial-Unicode, Arial, Sans-serif">Created by Olena Panasovska</text><text x="0" y="60020" fill="#000000" font-size="5px" font-weight="bold" font-family="'Helvetica Neue', Helvetica, Arial-Unicode, Arial, Sans-serif">from the Noun Project</text></svg>