<svg version="1.2" xmlns="http://www.w3.org/2000/svg" viewBox="0 0 3750 808" width="3750" height="808">
	<title>divider-svg</title>
	<style>
		tspan { white-space:pre } 
		.s0 { fill: #000000 } 
		.t1 { font-size: 5px;fill: #000000;font-family: "' Helvetica  Neue'" } 
	</style>
	<g id="Layer">
		<path id="Layer" fill-rule="evenodd" class="s0" d="m47.7 364.3c-13.7 0-24.9-11.2-24.9-24.9 0-13.8 11.2-25 24.9-25l920 0.8c46.9 0 75.6 24.3 100.1 45.1 15.8 13.4 28.6 24.2 42 13.1 7.6-6.4 16.3-16.9 25-27.2 18.6-22.3 36.7-44.1 60.6-46.3 32.9-3 57.6 28 80.4 56.6 4.7 6 9.4 11.9 11.6 14.4 7.6 9.1 3.1 16.5 5.5 14.4 1.7-1.4 4.8-5.2 8.2-9.6 12.2-15.3 27.7-34.8 59-44.7 25.7-8.2 60.8-0.8 99.2 17.2 13.9 6.4 28.4 14.3 43.2 23.4 34.6-34.2 67.4-68.6 91.9-105.9 2.4-3.7 4.5-6.8 6.5-9.7-28.8-37.3-50.4-77.7-58.1-123.1-6.9-41.1 8-69.3 31.1-84.5 12.8-8.4 28-12.6 43.3-12.6 15.1-0.1 30.4 4 43.6 12 24.9 15.2 42.2 44.2 36.3 86.1-6.1 42.3-34.9 88-57.1 120.5 32.3 37.7 72.1 72.5 110.4 106.1q5.2 4.5 10.3 9c35.1-34.4 68.4-68.9 93.3-105.9-23-33.4-54.7-82.3-61.3-128.4q-0.9-6.2-0.9-13.1c-0.3-24.8 8.8-47 23.4-63.8 14.8-16.9 35.1-28.4 57.3-31.6q5.3-0.7 11.6-0.8h0.4q6.2 0.1 11.6 0.8c22.1 3.2 42.5 14.7 57.2 31.6 14.6 16.8 23.7 39 23.4 63.8q0 6.9-0.9 13.1c-6.6 46.1-38.3 95-61.3 128.4 25 37.2 58.6 71.8 93.8 106.3q5.4-4.7 10.8-9.4c38.3-33.6 78.1-68.4 110.4-106.1-22.2-32.5-51-78.2-57-120.5-6-41.9 11.3-70.9 36.3-86.1 13.1-8 28.4-12.1 43.6-12 15.2 0 30.4 4.2 43.2 12.6 23.1 15.2 38 43.4 31.1 84.5-7.6 45.4-29.3 85.8-58.1 123.1 2 2.9 4.1 6 6.5 9.7 24.5 37.2 57.1 71.5 91.6 105.5 14.5-8.9 28.8-16.6 42.5-23 38.4-18 73.5-25.4 99.3-17.2 31.2 9.9 46.7 29.4 58.9 44.7 3.5 4.4 6.6 8.2 8.2 9.6 2.4 2.1-2-5.3 5.6-14.4 2.1-2.5 6.8-8.4 11.6-14.4 22.7-28.6 47.4-59.6 80.3-56.6 23.9 2.2 42.1 24 60.7 46.3 8.6 10.3 17.3 20.8 25 27.2 13.4 11.2 26.7 0.1 43-13.7 24.9-21 53.9-45.4 100.7-45.5l899.8-0.7c13.7 0 24.9 11.2 24.9 24.9 0 13.8-11.2 24.9-24.9 24.9l-899.8 0.7c-28.6 0-50.2 18.2-68.7 33.8-34 28.7-61.6 51.9-107.1 13.8-11-9.2-21.2-21.4-31.2-33.4-12-14.4-23.7-28.4-26.9-28.7-6.1-0.6-22 19.5-36.8 38.1-3.4 4.3-6.8 8.6-12.6 15.4-33.5 39.8-53.8 38.8-75.6 20.4-6-5-10.4-10.5-15.3-16.6-8-10.2-18.3-23.1-34.9-28.4-12.9-4.1-35.6 2-63.1 14.9-8.6 4-17.6 8.7-26.7 13.9 54.5 53.1 108.3 107.7 140.5 175.4v0.1c4.7 9.4 8.6 18.8 11.8 27.9 3.9 10.7 6.7 20.5 8.7 29 10.3 44.1-2 75.3-23.3 92.9-11.8 9.8-26.3 15.1-41.3 16.1-14.6 0.9-29.8-2.4-43.4-10.1-26.6-15.1-47-46.5-44-94.2 0.5-8.6 7.9-15.1 16.5-14.6 8.6 0.5 15.1 7.8 14.6 16.4-2.1 34 11 55.6 28.2 65.3 8.2 4.6 17.3 6.6 26.2 6.1 8.5-0.6 16.7-3.6 23.3-9 12.9-10.7 19.9-31.2 12.8-61.8-1.9-7.9-4.3-16.6-7.6-25.7-2.8-7.7-6.3-16.1-10.5-24.7l-0.2-0.2c-31-65.3-85.3-119.2-139.6-172-18.8 12.4-38 26.6-56.6 42-23.7 19.5-46.4 40.8-66.4 62.4 10.8 16 20.5 32.6 28.8 50.1 4.7 9.7 8.8 19.4 12.1 28.8 4.1 11.3 7 21.4 9 30.1 11.2 48.1-2.6 82.6-26.4 102.2-13.4 11.1-29.7 17.1-46.6 18.2-16.4 1.1-33.4-2.7-48.6-11.3-29.5-16.6-52-51-48.8-102.8 1.9-31.3 19.5-67.6 46.3-104q5-6.7 10.4-13.5c-28.5-35.6-62.4-68.5-96-101.1l-0.1-0.2c-15.5 14.3-30 28.4-42.7 42.4-16.4 18.1-32.2 36.9-46.7 56 7.8 11 15 22 21.6 33 19.5 32.5 33.2 64.6 37.4 93.8l0.1 1.3c2.8 45.3-15.9 75.4-41.2 89.9-11.5 6.6-24.3 9.9-37.1 9.9-12.9 0-25.7-3.3-37.2-9.9-25.3-14.5-44-44.6-41.2-89.9l0.2-1.3c4.1-29.2 17.8-61.3 37.3-93.8 6.6-11 13.8-22 21.6-33-14.5-19.1-30.3-37.9-46.7-56-12.8-14.2-27.5-28.4-43.2-42.8l-0.6 0.6c-33.6 32.6-67.5 65.5-96 101.1q5.4 6.8 10.4 13.5c26.8 36.4 44.4 72.7 46.3 104 3.3 51.8-19.3 86.2-48.7 102.8-15.3 8.6-32.3 12.4-48.6 11.3-17-1.1-33.3-7.1-46.7-18.2-23.8-19.6-37.6-54.1-26.4-102.2 2-8.7 4.9-18.8 9-30.1 3.4-9.4 7.4-19.1 12.1-28.8 8.3-17.5 18.1-34.1 28.8-50.1-20-21.6-42.7-42.9-66.3-62.4-18.5-15.3-37.4-29.4-56-41.6-54.2 52.6-108.3 106.5-139.3 171.6l-0.2 0.2c-4.2 8.6-7.7 17-10.5 24.7-3.2 9.1-5.7 17.8-7.5 25.7-7.2 30.6-0.1 51.1 12.7 61.8 6.6 5.4 14.8 8.4 23.3 9 8.9 0.5 18.1-1.5 26.2-6.1 17.2-9.7 30.3-31.3 28.2-65.3-0.5-8.6 6-15.9 14.6-16.4 8.6-0.5 16 6 16.5 14.6 3 47.7-17.4 79.1-44 94.2-13.6 7.7-28.8 11-43.4 10.1-15-1-29.5-6.3-41.3-16.1-21.2-17.6-33.5-48.8-23.2-92.9 1.9-8.5 4.7-18.3 8.6-29 3.2-9.1 7.1-18.5 11.8-27.9v-0.1c32.2-67.6 85.8-122.1 140.1-175-9.3-5.4-18.5-10.2-27.3-14.3-27.5-12.9-50.2-19-63.1-14.9-16.6 5.3-26.8 18.2-34.9 28.4-4.9 6.1-9.2 11.6-15.2 16.6-21.9 18.4-42.2 19.4-75.7-20.4-5.7-6.8-9.1-11.1-12.6-15.4-14.7-18.6-30.7-38.7-36.8-38.1-3.2 0.3-14.9 14.3-26.9 28.7-10 12-20.2 24.2-31.2 33.4-45.6 38.2-72.7 15.2-106.2-13.2-18.2-15.4-39.4-33.4-67.9-33.4zm1481.5 24.6c17.2 11.8 34.5 24.9 51.3 38.7 22.9 19 45.1 39.5 65.1 60.6 28.4-34.2 60.6-65.7 92.7-96.9l-8.4-7.4c-37.2-32.5-75.7-66.3-108.3-103l-1.2 1.9c-25.1 38.1-57.2 72.4-91.2 106.1zm501.4 2.9c32 31 64.1 62.3 92.3 96.4 20-21.1 42.2-41.6 65.1-60.6 17-14 34.5-27.2 51.9-39.1-33.8-33.5-65.8-67.7-90.8-105.7l-1.3-1.9c-32.5 36.7-71 70.5-108.2 103q-4.5 4-9 7.9zm-59.6 11.5c-31.3-30.8-61.5-62-86.7-96.2-25.1 34-55.2 65-86.4 95.7 15.8 14.6 30.6 29 43.9 43.7 15 16.5 29.5 33.6 42.9 50.9 13.5-17.3 28-34.4 43-50.9 13.1-14.5 27.8-28.8 43.3-43.2zm-351.4-174.5c19.5-29.2 41.9-66.8 46.6-99.3 3.9-27.4-6.5-45.8-21.7-55.1-8.2-5-17.8-7.5-27.3-7.5-9.4 0-18.6 2.5-26.2 7.5-13.5 8.9-22 26.5-17.4 53.4 6.1 36.3 23 69.7 46 101zm279.2 343.6q-6.6-11-14.1-22.1-7.4 11.1-14 22.1c-17.4 28.9-29.5 56.9-33.2 81.7-1.7 31.2 9.9 51.2 25.6 60.2 6.7 3.8 14.2 5.7 21.6 5.7 7.5 0 15-1.9 21.7-5.7 15.7-9 27.3-29 25.6-60.2-3.7-24.8-15.8-52.8-33.2-81.7zm251.1-343.6c23-31.3 39.9-64.7 46-101 4.6-26.9-3.9-44.5-17.4-53.4-7.6-5-16.8-7.5-26.2-7.5-9.5 0-19.1 2.5-27.3 7.5-15.2 9.3-25.6 27.7-21.7 55.1 4.6 32.5 27.1 70.1 46.6 99.3zm-500.7 340.6l-0.5-0.7c-6.3 10.2-12.1 20.7-17.2 31.4l-0.2 0.3c-4.2 8.4-7.5 16.4-10.1 23.8-3.1 8.5-5.5 16.9-7.3 24.6-6.2 26.7-0.7 43.9 9.7 52.5 5 4.1 11.3 6.4 17.9 6.8 7.1 0.5 14.5-1.1 21-4.8 14.4-8.1 25.3-26.7 23.4-56.6-1.3-20.9-15.3-48.2-36.7-77.3zm235.1-350.3c18.2-27.7 38-61.9 42.1-90.9q0.5-3.7 0.5-6.5c0.1-11.9-4.3-22.6-11.3-30.7-6.9-8-16.4-13.4-26.6-14.8q-2.7-0.4-4.7-0.5-2.1 0.1-4.8 0.5c-10.2 1.4-19.7 6.8-26.6 14.8-7 8.1-11.4 18.8-11.3 30.7q0 2.8 0.5 6.5c4.2 29 23.9 63.2 42.2 90.9zm252.7 381c-5.1-10.7-10.9-21.2-17.2-31.4l-0.5 0.7c-21.4 29.1-35.4 56.4-36.7 77.3-1.9 29.9 9 48.5 23.4 56.6 6.5 3.7 13.9 5.3 21 4.8 6.6-0.4 12.9-2.7 17.9-6.8 10.4-8.6 15.9-25.8 9.7-52.5-1.8-7.7-4.2-16.1-7.3-24.6-2.6-7.4-5.9-15.4-10.1-23.8z"/>
	</g>
	<text id="Created by Olena Panasovska" style="transform: matrix(.063,0,0,.063,0,2267.938)" >
		<tspan x="0" y="0" class="t1">Created by Olena Panasovska
</tspan>
	</text>
	<text id="from the Noun Project" style="transform: matrix(.063,0,0,.063,0,2268.25)" >
		<tspan x="0" y="0" class="t1">from the Noun Project
</tspan>
	</text>
</svg>